<svg xmlns="http://www.w3.org/2000/svg" width="256" height="256" viewBox="0 0 100 100"><rect width="100" height="100" rx="20" fill="#fee2b7"></rect><path fill="#fff" d="M35.60 40.32L35.60 78.84Q35.15 79.02 34.25 79.25Q33.35 79.47 32.27 79.47L32.27 79.47Q28.40 79.47 28.40 76.23L28.40 76.23L28.40 37.62Q28.85 37.44 29.79 37.22Q30.74 36.99 31.82 36.99L31.82 36.99Q35.60 36.99 35.60 40.32L35.60 40.32ZM27.32 24.30L27.32 24.30Q27.32 22.41 28.63 21.11Q29.93 19.80 32 19.80L32 19.80Q34.07 19.80 35.33 21.11Q36.59 22.41 36.59 24.30L36.59 24.30Q36.59 26.19 35.33 27.50Q34.07 28.80 32 28.80L32 28.80Q29.93 28.80 28.63 27.50Q27.32 26.19 27.32 24.30ZM63.86 80.19L63.86 80.19Q57.56 80.19 53.64 77.40Q49.73 74.61 49.73 68.13L49.73 68.13L49.73 25.38Q50.18 25.20 51.13 24.98Q52.07 24.75 53.15 24.75L53.15 24.75Q56.93 24.75 56.93 27.99L56.93 27.99L56.93 38.34L71.69 38.34Q71.96 38.79 72.23 39.56Q72.50 40.32 72.50 41.22L72.50 41.22Q72.50 44.28 69.80 44.28L69.80 44.28L56.93 44.28L56.93 67.68Q56.93 71.28 58.95 72.77Q60.98 74.25 64.67 74.25L64.67 74.25Q66.20 74.25 68.09 73.71Q69.98 73.17 71.24 72.45L71.24 72.45Q71.78 72.99 72.23 73.80Q72.68 74.61 72.68 75.69L72.68 75.69Q72.68 77.67 70.34 78.93Q68 80.19 63.86 80.19Z"></path></svg>